<svg xmlns="http://www.w3.org/2000/svg" viewBox="0 0 415.49 500"><defs><style>.cls-1{fill:#11416f;}.cls-2{fill:#fff;}</style></defs><g id="Layer_2" data-name="Layer 2"><g id="Layer_1-2" data-name="Layer 1"><g id="android"><path class="cls-1" d="M73.27,138.21s3-114.78,134.48-114.37c130.24.4,134.47,114.37,134.47,114.37Z"/><circle class="cls-2" cx="148.72" cy="79.62" r="16.19" transform="translate(-12.74 128.48) rotate(-45)"/><circle class="cls-2" cx="266.77" cy="79.62" r="16.19" transform="translate(145.44 330.19) rotate(-80.78)"/><path class="cls-1" d="M140.27,39.27c.47.67,5.94.46,7.28-.49h0c1.32-.94,2-2.26,1.54-2.93L124,.39c-.48-.68-2-.45-3.28.49h0c-1.33,1-2,2.25-1.55,2.93Z"/><path class="cls-1" d="M267.22,39.27c-.48.67-1.94.46-3.29-.49h0c-1.32-.94-2-2.26-1.54-2.93L287.51.39c.48-.68,2-.45,3.28.49h0c1.34,1,2,2.25,1.55,2.93Z"/><path class="cls-1" d="M343.35,154.18H72.14V265.81h.26V382.9a16.21,16.21,0,0,0,16.21,16.21H326.88a16.21,16.21,0,0,0,16.21-16.21V265.81h.26Z"/><path class="cls-1" d="M415.49,303.41a28.84,28.84,0,0,1-28.85,28.84h0a28.84,28.84,0,0,1-28.84-28.84V173.8A28.85,28.85,0,0,1,386.64,145h0a28.85,28.85,0,0,1,28.85,28.85Z"/><path class="cls-1" d="M57.69,303.41a28.85,28.85,0,0,1-28.85,28.84h0A28.84,28.84,0,0,1,0,303.41V173.8A28.85,28.85,0,0,1,28.84,145h0A28.85,28.85,0,0,1,57.69,173.8Z"/><path class="cls-1" d="M292.25,471.16A28.85,28.85,0,0,1,263.4,500h0a28.84,28.84,0,0,1-28.84-28.84V341.54A28.84,28.84,0,0,1,263.4,312.7h0a28.85,28.85,0,0,1,28.85,28.84Z"/><path class="cls-1" d="M180.93,471.16A28.85,28.85,0,0,1,152.08,500h0a28.84,28.84,0,0,1-28.84-28.84V341.54a28.84,28.84,0,0,1,28.84-28.84h0a28.85,28.85,0,0,1,28.85,28.84Z"/></g></g></g></svg>