<svg xmlns="http://www.w3.org/2000/svg" viewBox="0 0 1518.07 1015.72"><defs><style>.cls-outside-1{fill:#11416f;}.cls-inside-2{fill:#fff;}</style></defs><g id="Layer_2" data-name="Layer 2"><g id="Layer_1-2" data-name="Layer 1"><path class="cls-outside-1" d="M1517.9,746.61c-3-95-43-448-159-658-1.08-2-194-46-228-46,0,0-42-3-56,48s-32,141-32,141-.2.88-.51,2.5H475.68c-.31-1.62-.51-2.5-.51-2.5s-18-90-32-141-56-48-56-48c-34,0-226.92,44-228,46-116,210-156,563-159,658s35,183,53,211A100.19,100.19,0,0,0,88,990.1l2.29,2.67s29.84,12.84,51.84,16.84c19.89,3.62,56.15,5.6,62.9,5.94,3.53.94,13.76-1,34.1-37.94,38-69,59-129,91-216C336.66,744,386.84,663.43,438.7,652.2c27.05,10.46,81.32,24.51,152.47,3.41l347.5,1s61,27.5,137-2.5c11.26-4.45,25.34-4.79,40.56,0,46.08,21.47,76.85,90.92,82.94,107.47,32,87,47.24,145.43,87.43,213.18,24.43,41.18,37,39,37,39l.14-.28,83.43-14.9,1-.77c19.44-2.65,43.15-19.18,56.68-40.23C1482.9,929.61,1520.9,841.61,1517.9,746.61Z"/><path class="cls-outside-1" d="M375.6,31.79s339.43-74.12,786,4L1050.17,243.61h-602Z"/><path class="cls-outside-1" d="M187.17,81.61l2-28s42-32,101-43,103,1,103,1l6.5,31.5Z"/><circle class="cls-inside-2" cx="517.77" cy="505.99" r="93.58" transform="translate(-194.81 378.12) rotate(-34.17)"/><circle class="cls-inside-2" cx="993.77" cy="505.99" r="93.58" transform="translate(-112.65 645.45) rotate(-34.17)"/><path class="cls-outside-1" d="M1344.67,84.61l-2-28s-42-32-101-43-103,1-103,1l-6.5,31.5Z"/><circle class="cls-inside-2" cx="1123.17" cy="293.61" r="51"/><circle class="cls-inside-2" cx="1347.17" cy="293.61" r="51"/><circle class="cls-inside-2" cx="1233.17" cy="184.61" r="51"/><circle class="cls-inside-2" cx="1233.17" cy="406.61" r="51"/><rect class="cls-inside-2" x="287.8" y="170.76" width="54.51" height="95.19" rx="13.11"/><rect class="cls-inside-2" x="287.8" y="342.42" width="54.51" height="95.19" rx="13.11"/><rect class="cls-inside-2" x="371.6" y="256.18" width="54.51" height="95.19" rx="13.11" transform="translate(702.63 -95.08) rotate(90)"/><rect class="cls-inside-2" x="205.63" y="256.18" width="54.51" height="95.19" rx="13.11" transform="translate(536.67 70.89) rotate(90)"/></g></g></svg>