<svg xmlns="http://www.w3.org/2000/svg" viewBox="0 0 1177.57 779.5"><defs><style>.cls-1{fill:#888;}</style></defs><g id="Layer_2" data-name="Layer 2"><g id="_1" data-name=" 1"><path class="cls-1" d="M14.05,272.9,241.39,388.71V632a26.92,26.92,0,0,0,9.16,20.23c52,45.65,161.76,122.86,312.31,127.1,4.4.13,8.75.18,13.08.18,156.35,0,270.48-79.16,325.35-127.26A27,27,0,0,0,910.47,632V388.71l188.82-96.19V463.07a38,38,0,0,0-3.91,61.78A20.13,20.13,0,0,0,1085,538.13l-23.17,99.35a20.18,20.18,0,0,0,19.65,24.75h75.89A20.16,20.16,0,0,0,1177,637.48l-23.16-99.35a20.13,20.13,0,0,0-10.35-13.28,38,38,0,0,0-3.91-61.78V271.8a25.67,25.67,0,0,0-3.79-45.66L585.64,1.91a25.61,25.61,0,0,0-19.42,0L16,226.14a25.73,25.73,0,0,0-2,46.76ZM856.61,619.58c-53.53,44.53-155.75,109.81-292.23,105.91C438.93,722,344.83,660.86,295.24,619.58V416.14l269,137a25.7,25.7,0,0,0,23.37,0l269-137ZM575.93,53.53l488.38,199L575.93,501.37,87.54,252.57Z"/></g></g></svg>