<svg xmlns="http://www.w3.org/2000/svg" viewBox="0 0 895.73 613.54"><defs><style>.cls-1{fill:#fff;}</style></defs><g id="Layer_5" data-name="Layer 5"><path class="cls-1" d="M432.7,315,44.9,83.84A29.7,29.7,0,0,0,0,109.35v425c0,43.57,32.56,79.23,72.35,79.23h751c39.79,0,72.35-35.66,72.35-79.23V114a29.7,29.7,0,0,0-44.68-25.64L462.89,315.09A29.73,29.73,0,0,1,432.7,315Z"/><path class="cls-1" d="M47.29,0A74.3,74.3,0,0,0,24,3.74C2.16,10.94-.75,38.84,19.11,50L426.2,285.45c15.13,10.37,28.25,9.57,44.2-1.76L869.51,57.49c25.74-14.14,19.37-50.92-9.89-56.28"/></g></svg>