<svg xmlns="http://www.w3.org/2000/svg" viewBox="0 0 43.44 42.37"><defs><style>.cls-1{fill:#fff;fill-rule:evenodd;}</style></defs><g id="Layer_2" data-name="Layer 2"><g id="svg2"><g id="g8"><g id="g12"><g id="g14"><g id="g194"><path id="path196" class="cls-1" d="M21.72,0a21.72,21.72,0,0,0-6.87,42.33c1.09.2,1.49-.47,1.49-1s0-1.88,0-3.69C10.27,38.9,9,34.68,9,34.68A5.78,5.78,0,0,0,6.58,31.5c-2-1.35.15-1.32.15-1.32a4.53,4.53,0,0,1,3.32,2.24c1.94,3.32,5.09,2.36,6.33,1.8a4.59,4.59,0,0,1,1.37-2.9c-4.82-.55-9.89-2.41-9.89-10.74a8.36,8.36,0,0,1,2.24-5.82A7.78,7.78,0,0,1,10.31,9s1.82-.59,6,2.22a20.63,20.63,0,0,1,10.88,0c4.14-2.81,6-2.22,6-2.22a7.81,7.81,0,0,1,.22,5.75,8.36,8.36,0,0,1,2.23,5.82c0,8.35-5.08,10.18-9.91,10.72a5.19,5.19,0,0,1,1.47,4c0,2.91,0,5.25,0,6s.39,1.26,1.5,1A21.72,21.72,0,0,0,21.72,0"/></g></g></g></g></g></g></svg>