<svg xmlns="http://www.w3.org/2000/svg" viewBox="0 0 612.81 612.66"><defs><style>.cls-1{fill:#fff;fill-rule:evenodd;}</style></defs><g id="Layer_2" data-name="Layer 2"><g id="Layer_1-2" data-name="Layer 1"><path class="cls-1" d="M545.61,0H67.34C30.36,0,0,30.21,0,67.19V545.47c0,37,30.36,67.19,67.34,67.19H545.61a67.37,67.37,0,0,0,67.2-67.19V67.19A67.36,67.36,0,0,0,545.61,0ZM187.48,498.27h-86V243.16h86ZM178,199.14c-9.21,9.64-20.44,14.67-33.67,14.67-12.95,0-24-5-33.38-15A49.44,49.44,0,0,1,97,163.6c0-13.67,4.6-25.18,13.81-34.82s20.43-14.39,33.53-14.39c13.67,0,24.89,4.75,34,14.24s13.67,21,13.67,35S187.34,189.35,178,199.14ZM516,498.27H429.78V361.58c0-20.43-3.31-35.11-9.64-44.46s-16.54-14-30.5-14c-18,0-30.94,6.91-39.28,20.72-8.06,13.82-12.23,36.26-12.23,67.2V498.27H253.38V243.16h79V295c11.37-20.72,24.61-36,39.57-45.61S404.89,235,425.76,235c15.82,0,29.92,2.74,42.15,7.92A74,74,0,0,1,498,265.75c6.61,8.64,11.07,19.14,13.81,31.37S516,327.77,516,352.23Z"/></g></g></svg>