<svg xmlns="http://www.w3.org/2000/svg" viewBox="0 0 478.83 428.18"><defs><style>.cls-1{fill:#888;stroke:#888;stroke-miterlimit:10;stroke-width:12px;}.cls-2{fill:#58595b;}</style></defs><g id="Layer_2" data-name="Layer 2"><g id="Layer_1-2" data-name="Layer 1"><path class="cls-1" d="M403.45,422.18H75.38A69.46,69.46,0,0,1,6,352.8V131.18A69.47,69.47,0,0,1,75.38,61.79H403.45a69.46,69.46,0,0,1,69.38,69.39V352.8A69.45,69.45,0,0,1,403.45,422.18ZM75.38,76a55.22,55.22,0,0,0-55.15,55.16V352.8A55.21,55.21,0,0,0,75.38,408H403.45A55.21,55.21,0,0,0,458.6,352.8V131.18A55.22,55.22,0,0,0,403.45,76Z"/><path class="cls-1" d="M327.64,76H151.19V38.74A32.78,32.78,0,0,1,183.93,6h111a32.77,32.77,0,0,1,32.73,32.74ZM165.42,61.79h148v-23a18.52,18.52,0,0,0-18.5-18.51h-111a18.53,18.53,0,0,0-18.51,18.51Z"/><path class="cls-1" d="M403.45,61.79H75.38A69.47,69.47,0,0,0,6,131.18v19.21a69.46,69.46,0,0,0,69.38,69.38h135a27.84,27.84,0,0,1-.07-14.23H75.38a55.21,55.21,0,0,1-55.15-55.15V131.18A55.22,55.22,0,0,1,75.38,76H403.45a55.22,55.22,0,0,1,55.15,55.16v19.21a55.21,55.21,0,0,1-55.15,55.15H264.51a28.13,28.13,0,0,1-.07,14.23h139a69.45,69.45,0,0,0,69.38-69.38V131.18A69.46,69.46,0,0,0,403.45,61.79Z"/><circle class="cls-2" cx="237.4" cy="212.53" r="24.43" transform="translate(-34.73 378.29) rotate(-73.18)"/></g></g></svg>